<svg class="site-logo" version="1.1" xmlns="http://www.w3.org/2000/svg" xmlns:xlink="http://www.w3.org/1999/xlink" x="0.00px" y="0.00px" width="80.00px" height="18.40px" viewBox="0 0 80.00 18.40" enable-background="new 0 0 80.00 18.40" xml:space="preserve">
    <desc>Missguided</desc>        
    <path d="M0,18.4V0h3.1l1.4,10l0.3,3.3L5.1,10L6.5,0h3.1v18.4H7.8V3.3L7.5,5.8L5.7,18.4H3.9L2.1,5.6L1.9,3.3v15.1H0z M12.4,18.4h2.1 V0h-2.1V18.4z M52,18.4h2.1V0H52V18.4z M68,10.1h1.9V8H68V2.1h3.2V0h-5.3v18.4h5.3v-2.1H68V10.1z M47.2,0v15.3c0,0.6-0.5,1-1,1 c-0.6,0-1-0.5-1-1V0H43v15.3l0,0c0,1.8,1.4,3.2,3.2,3.2s3.2-1.4,3.2-3.2V0H47.2z M61.1,15.3V3.2l0,0c0-0.6-0.5-1-1-1l0,0h-1v14.2h1 l0,0C60.6,16.3,61.1,15.8,61.1,15.3L61.1,15.3z M60,0c1.8,0,3.2,1.4,3.2,3.2v12.1c0,1.8-1.4,3.2-3.2,3.2h-3.2V0H60 M77.9,15.3V3.2 l0,0c0-0.6-0.5-1-1-1l0,0h-1v14.2h1l0,0C77.4,16.3,77.9,15.8,77.9,15.3L77.9,15.3z M76.9,0C78.6,0,80,1.4,80,3.2v12.1 c0,1.8-1.4,3.2-3.2,3.2h-3.2V0H76.9 M29.5,8.4c-1-0.9-1.8-1.7-1.8-3.2V3.2c0-0.6,0.5-1,1-1s1,0.5,1,1v2.1h2.1V3.2 c0-1.8-1.4-3.2-3.2-3.2s-3.2,1.4-3.2,3.2l0,0v2.1l0,0C25.6,7.7,27,9,28,10c1,0.9,1.8,1.7,1.8,3.2l0,0v2.1c0,0.6-0.5,1-1,1 c-0.6,0-1-0.5-1-1v-3.1h-2.1v3.1c0,1.8,1.4,3.2,3.2,3.2s3.2-1.4,3.2-3.2l0,0v-2.1C31.9,10.7,30.6,9.5,29.5,8.4 M20.8,8.4 c-1-0.9-1.8-1.7-1.8-3.2V3.2c0-0.6,0.5-1,1-1c0.6,0,1,0.5,1,1v2.1h2.1V3.2c0-1.8-1.4-3.2-3.2-3.2c-1.8,0-3.2,1.4-3.2,3.2l0,0v2.1 l0,0c0,2.4,1.4,3.7,2.4,4.7c1,0.9,1.8,1.7,1.8,3.2l0,0v2.1c0,0.6-0.5,1-1,1s-1-0.5-1-1v-3.1H17v3.1c0,1.8,1.4,3.2,3.2,3.2 c1.8,0,3.2-1.4,3.2-3.2l0,0v-2.1C23.3,10.7,21.9,9.5,20.8,8.4 M40.5,5.2V3.2c0-1.8-1.4-3.2-3.2-3.2c-1.8,0-3.2,1.4-3.2,3.2l0,0v12.1 l0,0c0,1.7,1.4,3.1,3.1,3.2l0,0c1,0,1.8-0.5,2.2-1.4l1,1.4v-8.4h-3.2v2.1h1v3.1c0,0.6-0.4,1-1,1c0,0,0,0,0,0c-0.6,0-1-0.5-1-1V3.2 c0-0.6,0.5-1,1-1s1,0.5,1,1v2.1H40.5z"></path>
</svg>